<svg width="36" height="36" viewBox="0 0 36 36" fill="none" xmlns="http://www.w3.org/2000/svg">
<circle cx="18" cy="18" r="18" fill="#EB001B"/>
<path d="M27 11.98C23.67 11.65 20.32 11.48 16.98 11.48C15 11.48 13.02 11.58 11.04 11.78L9 11.98M14.5 10.97L14.72 9.66C14.88 8.71 15 8 16.69 8H19.31C21 8 21.13 8.75 21.28 9.67L21.5 10.97M24.85 15.14L24.2 25.21C24.09 26.78 24 28 21.21 28H14.79C12 28 11.91 26.78 11.8 25.21L11.15 15.14M16.33 22.5H19.66M15.5 18.5H20.5" stroke="white" stroke-width="2" stroke-linecap="round" stroke-linejoin="round"/>
</svg>
