<svg width="32" height="32" viewBox="0 0 32 32" fill="none" xmlns="http://www.w3.org/2000/svg">
<path d="M29.3332 20C29.3332 25.16 25.1598 29.3333 19.9998 29.3333L21.3998 27M2.6665 12C2.6665 6.83996 6.83984 2.66663 11.9998 2.66663L10.5998 4.99996M18.2665 5.93329L23.5732 8.99996L28.8265 5.94663M23.5732 14.4266V8.98663" stroke="white" stroke-width="2" stroke-linecap="round" stroke-linejoin="round"/>
<path d="M3.1333 20.6L8.42663 23.6666L13.6933 20.6133M8.42663 29.0933V23.6533M22.32 2.94663L19.12 4.71996C18.4 5.11996 17.8 6.13329 17.8 6.95996V10.3466C17.8 11.1733 18.3866 12.1866 19.12 12.5866L22.32 14.36C23 14.7466 24.12 14.7466 24.8133 14.36L28.0133 12.5866C28.7333 12.1866 29.3333 11.1733 29.3333 10.3466V6.95996C29.3333 6.13329 28.7466 5.11996 28.0133 4.71996L24.8133 2.94663C24.1333 2.57329 23.0133 2.57329 22.32 2.94663Z" stroke="white" stroke-width="2" stroke-linecap="round" stroke-linejoin="round"/>
<path d="M7.1865 17.6134L3.9865 19.3867C3.2665 19.7867 2.6665 20.8 2.6665 21.6267V25.0134C2.6665 25.84 3.25317 26.8534 3.9865 27.2534L7.1865 29.0267C7.8665 29.4134 8.9865 29.4134 9.67984 29.0267L12.8798 27.2534C13.5998 26.8534 14.1998 25.84 14.1998 25.0134V21.6267C14.1998 20.8 13.6132 19.7867 12.8798 19.3867L9.67984 17.6134C8.9865 17.24 7.8665 17.24 7.1865 17.6134V17.6134Z" stroke="white" stroke-width="2" stroke-linecap="round" stroke-linejoin="round"/>
</svg>
