<svg width="32" height="32" viewBox="0 0 32 32" fill="none" xmlns="http://www.w3.org/2000/svg">
<path d="M5.33347 10.6666H4.00014M28.0001 10.6666H26.6668M16.0001 3.99998V6.66665M14.0001 6.66665H18.0001M8.00014 20H12.0001M20.0001 20H24.0001M20.6801 3.77332H11.3201C8.00014 3.77332 7.2668 5.42665 6.84014 7.45332L5.33347 14.6666H26.6668L25.1601 7.45332C24.7335 5.42665 24.0001 3.77332 20.6801 3.77332V3.77332ZM29.3201 26.4266C29.4668 27.9866 28.2135 29.3333 26.6135 29.3333H24.1068C22.6668 29.3333 22.4668 28.72 22.2135 27.96L21.9468 27.16C21.5735 26.0666 21.3335 25.3333 19.4135 25.3333H12.5868C10.6668 25.3333 10.3868 26.16 10.0535 27.16L9.7868 27.96C9.53347 28.72 9.33347 29.3333 7.89347 29.3333H5.3868C3.7868 29.3333 2.53347 27.9866 2.68014 26.4266L3.4268 18.3066C3.61347 16.3066 4.00014 14.6666 7.49347 14.6666H24.5068C28.0001 14.6666 28.3868 16.3066 28.5735 18.3066L29.3201 26.4266Z" stroke="white" stroke-width="2" stroke-linecap="round" stroke-linejoin="round"/>
</svg>
