<svg width="32" height="32" viewBox="0 0 32 32" fill="none" xmlns="http://www.w3.org/2000/svg">
<path d="M13.9869 2.97333L7.33354 5.46666C5.80021 6.04 4.54688 7.85333 4.54688 9.49333V19.4C4.54688 20.9733 5.58687 23.04 6.85354 23.9867L12.5869 28.2667C14.4669 29.68 17.5602 29.68 19.4402 28.2667L25.1735 23.9867C26.4402 23.04 27.4802 20.9733 27.4802 19.4V9.49333C27.4802 7.85333 26.2269 6.04 24.6935 5.46666L18.0402 2.97333C16.9069 2.56 15.0935 2.56 13.9869 2.97333V2.97333Z" stroke="white" stroke-width="2" stroke-linecap="round" stroke-linejoin="round"/>
<path d="M16.0001 14.56H15.8267C14.5734 14.52 13.5734 13.48 13.5734 12.2134C13.5734 10.92 14.6267 9.8667 15.9201 9.8667C17.2134 9.8667 18.2667 10.92 18.2667 12.2134C18.2534 13.4934 17.2534 14.52 16.0001 14.56ZM13.3467 18.2934C12.0667 19.1467 12.0667 20.5467 13.3467 21.4C14.8001 22.3734 17.1867 22.3734 18.6401 21.4C19.9201 20.5467 19.9201 19.1467 18.6401 18.2934C17.2001 17.32 14.8134 17.32 13.3467 18.2934Z" stroke="white" stroke-width="2" stroke-linecap="round" stroke-linejoin="round"/>
</svg>
