<svg width="49" height="30" viewBox="0 0 49 30" fill="none" xmlns="http://www.w3.org/2000/svg">
<path d="M48.0677 24.2948V23.7124H47.916L47.7406 24.112L47.5661 23.7124H47.414V24.2948H47.5217V23.8561L47.6857 24.2346H47.7974L47.9614 23.8551V24.2948H48.0682H48.0677ZM47.1056 24.2948V23.8121H47.2997V23.7139H46.8037V23.8121H46.9978V24.2948H47.1046H47.1056Z" fill="#F79410"/>
<path d="M30.8306 26.7924H17.7065V3.20667H30.8308L30.8306 26.7924Z" fill="#FF5F00"/>
<path d="M18.5386 15C18.5386 10.2156 20.7787 5.95371 24.2671 3.20714C21.6266 1.12506 18.3607 -0.0049522 14.998 1.63146e-05C6.71465 1.63146e-05 0 6.71564 0 15C0 23.2844 6.71465 30 14.998 30C18.3608 30.005 21.6268 28.875 24.2673 26.7929C20.7792 24.0468 18.5386 19.7846 18.5386 15Z" fill="#EB001B"/>
<path d="M48.5361 15C48.5361 23.2844 41.8215 30 33.5381 30C30.175 30.0049 26.9087 28.8749 24.2676 26.7929C27.7569 24.0463 29.9971 19.7846 29.9971 15C29.9971 10.2154 27.7569 5.95371 24.2676 3.20714C26.9086 1.12513 30.1748 -0.00486511 33.5378 1.57455e-05C41.8212 1.57455e-05 48.5359 6.71564 48.5359 15" fill="#F79E1B"/>
</svg>
