<svg width="130" height="25" viewBox="0 0 130 25" fill="none" xmlns="http://www.w3.org/2000/svg">
<path d="M16.504 19.46C14.5253 16.6787 12.556 13.9253 10.596 11.2C8.636 8.47467 6.66667 5.72133 4.688 2.94H6.928L17.232 17.388C18.9307 14.98 20.6107 12.5813 22.272 10.192C23.952 7.784 25.632 5.36667 27.312 2.94H29.412L17.848 19.46H16.504ZM26.472 1.372C24.9227 3.612 23.3827 5.84267 21.852 8.064C20.3213 10.2853 18.7627 12.5067 17.176 14.728L7.684 1.372H1.748L15.748 21.028H18.688L32.408 1.372H26.472ZM36.384 3.556L21.824 24.444H18.212L15.384 21.728L0.376 0.672H8.608L10.82 3.556L17.512 13.048C18.0907 12.2453 18.6693 11.424 19.248 10.584C19.8453 9.72533 20.48 8.81067 21.152 7.84C21.8427 6.85067 22.5893 5.77733 23.392 4.62C24.1947 3.444 25.1 2.128 26.108 0.672H33.724L36.384 3.556ZM53.3214 6.216C53.5454 6.216 53.7787 6.23467 54.0214 6.272C54.264 6.30933 54.488 6.37467 54.6934 6.468C54.8987 6.56133 55.0667 6.692 55.1974 6.86C55.3467 7.028 55.4214 7.252 55.4214 7.532C55.4214 7.79333 55.3467 8.008 55.1974 8.176C55.048 8.344 54.8614 8.47467 54.6374 8.568C54.432 8.66133 54.1987 8.72667 53.9374 8.764C53.6947 8.80133 53.48 8.82 53.2934 8.82H42.9334V6.216H53.3214ZM53.2934 10.36C53.7414 10.36 54.18 10.3133 54.6094 10.22C55.0574 10.108 55.4587 9.94 55.8134 9.716C56.168 9.492 56.448 9.20267 56.6534 8.848C56.8774 8.47467 56.9894 8.036 56.9894 7.532C56.9894 7.00933 56.8867 6.56133 56.6814 6.188C56.476 5.81467 56.196 5.516 55.8414 5.292C55.5054 5.068 55.1134 4.90933 54.6654 4.816C54.236 4.704 53.788 4.648 53.3214 4.648H41.3934V10.36H53.2934ZM55.8414 11.62C55.58 11.7693 55.2907 11.8813 54.9734 11.956C54.656 12.0307 54.3574 12.1053 54.0774 12.18C55.1227 13.412 56.168 14.6253 57.2134 15.82C58.2774 17.0147 59.3414 18.228 60.4054 19.46H58.1374L51.6694 12.04H41.3934V19.46H39.6574V2.94H53.3214C54.0867 2.94 54.796 3.024 55.4494 3.192C56.1214 3.36 56.6907 3.63067 57.1574 4.004C57.6427 4.37733 58.016 4.85333 58.2774 5.432C58.5574 6.01067 58.6974 6.71067 58.6974 7.532C58.6974 8.55867 58.464 9.408 57.9974 10.08C57.5307 10.7333 56.8214 11.2467 55.8694 11.62H55.8414ZM60.2654 7.532C60.2654 6.468 60.0974 5.55333 59.7614 4.788C59.4254 4.004 58.9494 3.36 58.3334 2.856C57.7174 2.352 56.98 1.97867 56.1214 1.736C55.2814 1.49333 54.348 1.372 53.3214 1.372H38.1454V21.028H42.9334V13.58H50.9414L57.3814 21.028H63.8214L56.7654 12.936C59.0987 11.9093 60.2654 10.108 60.2654 7.532ZM37.4454 21.728V0.672H53.3214C54.0494 0.672 54.7494 0.728 55.4214 0.839999C56.0934 0.933332 56.7654 1.13867 57.4374 1.456C58.128 1.77333 58.8374 2.23067 59.5654 2.828C60.312 3.42533 61.1054 4.21867 61.9454 5.208C62.4867 5.74933 62.9067 6.47733 63.2054 7.392C63.5227 8.288 63.6814 9.268 63.6814 10.332C63.6814 11.564 63.4107 12.656 62.8694 13.608C62.3467 14.56 61.5814 15.3347 60.5734 15.932C61.152 16.604 61.7587 17.304 62.3934 18.032C63.028 18.76 63.6627 19.4973 64.2974 20.244C64.932 20.972 65.5574 21.6907 66.1734 22.4C66.808 23.128 67.4054 23.8093 67.9654 24.444H59.9014L57.0734 21.728L52.9854 16.996H46.3494V24.444H40.3294L37.4454 21.728ZM82.5308 17.752C83.6135 17.752 84.6215 17.64 85.5548 17.416C86.5068 17.1733 87.3282 16.8 88.0188 16.296C88.7282 15.7733 89.2788 15.1013 89.6708 14.28C90.0628 13.44 90.2588 12.4133 90.2588 11.2C90.2588 10.0053 90.0535 8.988 89.6428 8.148C89.2508 7.308 88.7095 6.636 88.0188 6.132C87.3282 5.60933 86.5068 5.236 85.5548 5.012C84.6215 4.76933 83.6135 4.648 82.5308 4.648H79.4508C78.3495 4.648 77.3228 4.76933 76.3708 5.012C75.4375 5.236 74.6255 5.60933 73.9348 6.132C73.2442 6.636 72.6935 7.308 72.2828 8.148C71.8908 8.988 71.6948 10.0053 71.6948 11.2C71.6948 12.4133 71.8908 13.44 72.2828 14.28C72.6935 15.1013 73.2442 15.7733 73.9348 16.296C74.6255 16.8187 75.4375 17.192 76.3708 17.416C77.3228 17.64 78.3495 17.752 79.4508 17.752H82.5308ZM79.4508 16.184C78.6108 16.184 77.8175 16.1 77.0708 15.932C76.3242 15.764 75.6708 15.4933 75.1108 15.12C74.5508 14.728 74.1028 14.2147 73.7668 13.58C73.4308 12.9453 73.2628 12.152 73.2628 11.2C73.2628 10.2667 73.4308 9.48267 73.7668 8.848C74.1028 8.21333 74.5508 7.7 75.1108 7.308C75.6895 6.916 76.3522 6.636 77.0988 6.468C77.8455 6.3 78.6295 6.216 79.4508 6.216H82.5308C83.3522 6.216 84.1362 6.3 84.8828 6.468C85.6295 6.636 86.2828 6.916 86.8428 7.308C87.4028 7.7 87.8508 8.21333 88.1868 8.848C88.5228 9.48267 88.6908 10.2667 88.6908 11.2C88.6908 12.1333 88.5228 12.9173 88.1868 13.552C87.8695 14.1867 87.4308 14.7 86.8708 15.092C86.3108 15.484 85.6575 15.764 84.9108 15.932C84.1642 16.1 83.3708 16.184 82.5308 16.184H79.4508ZM69.9308 11.2C69.9308 9.688 70.1642 8.40933 70.6308 7.364C71.1162 6.31867 71.7788 5.46933 72.6188 4.816C73.4775 4.144 74.4855 3.668 75.6428 3.388C76.8188 3.08933 78.0882 2.94 79.4508 2.94H82.5308C83.8935 2.94 85.1535 3.08933 86.3108 3.388C87.4682 3.68667 88.4668 4.16267 89.3068 4.816C90.1655 5.46933 90.8282 6.31867 91.2948 7.364C91.7802 8.40933 92.0228 9.688 92.0228 11.2C92.0228 12.712 91.7802 13.9907 91.2948 15.036C90.8282 16.0813 90.1655 16.9307 89.3068 17.584C88.4668 18.2373 87.4682 18.7133 86.3108 19.012C85.1535 19.3107 83.8935 19.46 82.5308 19.46H79.4508C78.0882 19.46 76.8188 19.32 75.6428 19.04C74.4855 18.7413 73.4775 18.2653 72.6188 17.612C71.7788 16.94 71.1162 16.0813 70.6308 15.036C70.1642 13.9907 69.9308 12.712 69.9308 11.2ZM68.3628 11.2C68.3628 12.9733 68.6335 14.4853 69.1748 15.736C69.7348 16.968 70.5002 17.976 71.4708 18.76C72.4602 19.544 73.6268 20.1227 74.9708 20.496C76.3335 20.8507 77.8268 21.028 79.4508 21.028H82.5308C84.1548 21.028 85.6388 20.8507 86.9828 20.496C88.3268 20.1227 89.4842 19.544 90.4548 18.76C91.4442 17.976 92.2095 16.968 92.7508 15.736C93.2922 14.4853 93.5628 12.9733 93.5628 11.2C93.5628 9.42667 93.2922 7.924 92.7508 6.692C92.2095 5.44133 91.4442 4.424 90.4548 3.64C89.4842 2.856 88.3268 2.28667 86.9828 1.932C85.6388 1.55867 84.1548 1.372 82.5308 1.372H79.4508C77.8268 1.372 76.3335 1.55867 74.9708 1.932C73.6268 2.28667 72.4602 2.856 71.4708 3.64C70.5002 4.424 69.7348 5.44133 69.1748 6.692C68.6335 7.924 68.3628 9.42667 68.3628 11.2ZM67.6628 11.2C67.6628 9.296 67.9522 7.68133 68.5308 6.356C69.1095 5.012 69.9215 3.92 70.9668 3.08C72.0122 2.24 73.2535 1.63333 74.6908 1.26C76.1468 0.867999 77.7335 0.672 79.4508 0.672H82.5308C83.6135 0.672 84.6308 0.737333 85.5828 0.867999C86.5535 0.979999 87.5055 1.232 88.4388 1.624C89.3722 1.99733 90.2962 2.53867 91.2108 3.248C92.1442 3.93867 93.1055 4.872 94.0948 6.048C94.9348 6.888 95.6255 7.99867 96.1668 9.38C96.7082 10.7613 96.9788 12.3013 96.9788 14C96.9788 15.8853 96.6895 17.4907 96.1108 18.816C95.5508 20.1413 94.7482 21.2147 93.7028 22.036C92.6762 22.876 91.4442 23.4827 90.0068 23.856C88.5882 24.248 87.0295 24.444 85.3308 24.444H82.2508C80.3468 24.444 78.5735 24.2293 76.9308 23.8C75.2882 23.3707 73.9348 22.6333 72.8708 21.588C71.8068 20.6547 70.9388 19.7773 70.2668 18.956C69.5948 18.116 69.0628 17.2853 68.6708 16.464C68.2975 15.6427 68.0362 14.8027 67.8868 13.944C67.7375 13.0853 67.6628 12.1707 67.6628 11.2ZM82.5308 15.484C83.2588 15.484 83.9495 15.4187 84.6028 15.288C85.2748 15.1387 85.8628 14.896 86.3668 14.56C86.8708 14.224 87.2628 13.7853 87.5428 13.244C87.8415 12.684 87.9908 12.0027 87.9908 11.2C87.9908 10.752 87.9348 10.3413 87.8228 9.968C87.0575 9.744 86.2268 9.632 85.3308 9.632H82.2508C81.5042 9.632 80.7948 9.70667 80.1228 9.856C79.4508 10.0053 78.8535 10.248 78.3308 10.584C77.8268 10.92 77.4255 11.368 77.1268 11.928C76.8282 12.488 76.6788 13.1787 76.6788 14C76.6788 14.448 76.7162 14.8213 76.7908 15.12C77.1828 15.2507 77.6028 15.344 78.0508 15.4C78.4988 15.456 78.9655 15.484 79.4508 15.484H82.5308ZM102.494 2.94H103.95L113.61 17.276C115.197 14.8493 116.793 12.4507 118.398 10.08C120.022 7.70933 121.655 5.32933 123.298 2.94H124.754V19.46H123.018V6.468L114.31 19.46H112.938L104.23 6.496V19.46H102.494V2.94ZM105.77 11.592L112.07 21.028H115.15L121.478 11.564V21.028H126.294V1.372H122.43L113.582 14.476L104.79 1.372H100.954V21.028H105.77V11.592ZM107.898 3.556L113.974 12.656L122.094 0.672H126.994L129.71 3.556V24.444H123.662L120.778 21.728V20.692L118.258 24.444H114.562L111.734 21.728L109.186 17.92V24.444H103.138L100.254 21.728V0.672H105.126L107.898 3.556Z" fill="#0D0C41"/>
</svg>
